<mxfile host="app.diagrams.net" agent="Mozilla/5.0 (Windows NT 10.0; Win64; x64) AppleWebKit/537.36 (KHTML, like Gecko) Chrome/135.0.0.0 Safari/537.36" version="26.2.14">
  <diagram name="Page-1" id="2pZKXxrhHH1hkuZWHT0M">
    <mxGraphModel dx="2325" dy="1896" grid="1" gridSize="10" guides="1" tooltips="1" connect="1" arrows="1" fold="1" page="1" pageScale="1" pageWidth="850" pageHeight="1100" math="0" shadow="0">
      <root>
        <mxCell id="0" />
        <mxCell id="1" parent="0" />
        <mxCell id="kvLQjRlfDXeJNrqbUT43-1" value="" style="whiteSpace=wrap;html=1;aspect=fixed;movable=0;resizable=0;rotatable=0;deletable=0;editable=0;locked=1;connectable=0;" parent="1" vertex="1">
          <mxGeometry x="-50" y="-260" width="840" height="840" as="geometry" />
        </mxCell>
        <object label="Actor" id="kvLQjRlfDXeJNrqbUT43-5">
          <mxCell style="shape=umlActor;verticalLabelPosition=bottom;verticalAlign=top;html=1;outlineConnect=0;" parent="1" vertex="1">
            <mxGeometry x="939" y="-55" width="80" height="175" as="geometry" />
          </mxCell>
        </object>
        <mxCell id="kvLQjRlfDXeJNrqbUT43-9" value="log in&amp;nbsp;" style="ellipse;whiteSpace=wrap;html=1;" parent="1" vertex="1">
          <mxGeometry x="165" y="-120" width="110" height="50" as="geometry" />
        </mxCell>
        <mxCell id="kvLQjRlfDXeJNrqbUT43-10" value="check balance" style="ellipse;whiteSpace=wrap;html=1;" parent="1" vertex="1">
          <mxGeometry x="175" y="-40" width="110" height="70" as="geometry" />
        </mxCell>
        <mxCell id="kvLQjRlfDXeJNrqbUT43-11" value="transfer fund" style="ellipse;whiteSpace=wrap;html=1;" parent="1" vertex="1">
          <mxGeometry x="172.5" y="40" width="115" height="80" as="geometry" />
        </mxCell>
        <mxCell id="kvLQjRlfDXeJNrqbUT43-12" value="make payment" style="ellipse;whiteSpace=wrap;html=1;" parent="1" vertex="1">
          <mxGeometry x="165" y="140" width="120" height="80" as="geometry" />
        </mxCell>
        <mxCell id="kvLQjRlfDXeJNrqbUT43-13" value="pay from checking" style="ellipse;whiteSpace=wrap;html=1;" parent="1" vertex="1">
          <mxGeometry x="110" y="252.5" width="90" height="72.5" as="geometry" />
        </mxCell>
        <mxCell id="kvLQjRlfDXeJNrqbUT43-14" value="pay from savings" style="ellipse;whiteSpace=wrap;html=1;" parent="1" vertex="1">
          <mxGeometry x="270" y="250" width="100" height="75" as="geometry" />
        </mxCell>
        <mxCell id="kvLQjRlfDXeJNrqbUT43-17" value="" style="strokeWidth=2;html=1;shape=mxgraph.flowchart.start_1;whiteSpace=wrap;" parent="1" vertex="1">
          <mxGeometry x="140" y="450" width="100" height="60" as="geometry" />
        </mxCell>
        <mxCell id="kvLQjRlfDXeJNrqbUT43-18" value="verify password" style="ellipse;whiteSpace=wrap;html=1;" parent="1" vertex="1">
          <mxGeometry x="440" y="-135" width="120" height="80" as="geometry" />
        </mxCell>
        <mxCell id="kvLQjRlfDXeJNrqbUT43-19" value="display login error" style="ellipse;whiteSpace=wrap;html=1;movable=0;resizable=0;rotatable=0;deletable=0;editable=0;locked=1;connectable=0;" parent="1" vertex="1">
          <mxGeometry x="440" width="120" height="80" as="geometry" />
        </mxCell>
        <mxCell id="kvLQjRlfDXeJNrqbUT43-20" value="verify sufficient funds" style="ellipse;whiteSpace=wrap;html=1;" parent="1" vertex="1">
          <mxGeometry x="460" y="160" width="120" height="80" as="geometry" />
        </mxCell>
        <mxCell id="kvLQjRlfDXeJNrqbUT43-21" value="go to promote help" style="ellipse;whiteSpace=wrap;html=1;" parent="1" vertex="1">
          <mxGeometry x="540" y="290" width="120" height="80" as="geometry" />
        </mxCell>
        <mxCell id="kvLQjRlfDXeJNrqbUT43-22" value="" style="ellipse;whiteSpace=wrap;html=1;" parent="1" vertex="1">
          <mxGeometry x="530" y="430" width="120" height="80" as="geometry" />
        </mxCell>
        <mxCell id="kwxfT00Ql_JaEr1ieJ3t-8" value="Actor" style="shape=umlActor;verticalLabelPosition=bottom;verticalAlign=top;html=1;outlineConnect=0;" vertex="1" parent="1">
          <mxGeometry x="-300" y="-50" width="90" height="180" as="geometry" />
        </mxCell>
        <mxCell id="kwxfT00Ql_JaEr1ieJ3t-19" value="" style="endArrow=none;html=1;rounded=0;exitX=0;exitY=0.5;exitDx=0;exitDy=0;exitPerimeter=0;entryX=0;entryY=0.5;entryDx=0;entryDy=0;" edge="1" parent="1" source="kvLQjRlfDXeJNrqbUT43-17" target="kvLQjRlfDXeJNrqbUT43-9">
          <mxGeometry width="50" height="50" relative="1" as="geometry">
            <mxPoint x="-100" y="315" as="sourcePoint" />
            <mxPoint x="-90" y="49.44444444444434" as="targetPoint" />
            <Array as="points">
              <mxPoint x="-130" y="140" />
              <mxPoint x="-210" y="25" />
            </Array>
          </mxGeometry>
        </mxCell>
        <mxCell id="kwxfT00Ql_JaEr1ieJ3t-20" value="" style="endArrow=none;html=1;rounded=0;" edge="1" parent="1">
          <mxGeometry width="50" height="50" relative="1" as="geometry">
            <mxPoint x="-210" y="20" as="sourcePoint" />
            <mxPoint x="-200" y="20" as="targetPoint" />
            <Array as="points">
              <mxPoint x="180" y="80" />
            </Array>
          </mxGeometry>
        </mxCell>
        <mxCell id="kwxfT00Ql_JaEr1ieJ3t-22" value="" style="endArrow=none;html=1;rounded=0;entryX=0;entryY=0.5;entryDx=0;entryDy=0;exitX=0.042;exitY=0.375;exitDx=0;exitDy=0;exitPerimeter=0;" edge="1" parent="1" source="kvLQjRlfDXeJNrqbUT43-12">
          <mxGeometry width="50" height="50" relative="1" as="geometry">
            <mxPoint x="129.99000000000024" y="255.01999999999998" as="sourcePoint" />
            <mxPoint x="175" y="-10" as="targetPoint" />
            <Array as="points">
              <mxPoint x="-210" y="25" />
            </Array>
          </mxGeometry>
        </mxCell>
        <mxCell id="kwxfT00Ql_JaEr1ieJ3t-25" value="&lt;font style=&quot;font-size: 31px;&quot;&gt;Bank&lt;/font&gt;" style="rounded=0;whiteSpace=wrap;html=1;" vertex="1" parent="1">
          <mxGeometry x="919" y="120" width="120" height="60" as="geometry" />
        </mxCell>
        <mxCell id="kwxfT00Ql_JaEr1ieJ3t-28" value="" style="endArrow=none;html=1;rounded=0;" edge="1" parent="1">
          <mxGeometry width="50" height="50" relative="1" as="geometry">
            <mxPoint x="910" as="sourcePoint" />
            <mxPoint x="700" y="130" as="targetPoint" />
            <Array as="points">
              <mxPoint x="600" y="190" />
            </Array>
          </mxGeometry>
        </mxCell>
        <mxCell id="kwxfT00Ql_JaEr1ieJ3t-29" value="" style="endArrow=none;html=1;rounded=0;" edge="1" parent="1">
          <mxGeometry width="50" height="50" relative="1" as="geometry">
            <mxPoint x="570" y="-80" as="sourcePoint" />
            <mxPoint x="910" as="targetPoint" />
          </mxGeometry>
        </mxCell>
        <mxCell id="kwxfT00Ql_JaEr1ieJ3t-30" value="" style="endArrow=none;html=1;rounded=0;" edge="1" parent="1">
          <mxGeometry width="50" height="50" relative="1" as="geometry">
            <mxPoint x="910" as="sourcePoint" />
            <mxPoint x="560" y="30" as="targetPoint" />
            <Array as="points">
              <mxPoint x="620" y="30" />
            </Array>
          </mxGeometry>
        </mxCell>
        <mxCell id="kwxfT00Ql_JaEr1ieJ3t-31" value="&lt;font style=&quot;font-size: 23px;&quot;&gt;Banking App&lt;/font&gt;" style="rounded=0;whiteSpace=wrap;html=1;" vertex="1" parent="1">
          <mxGeometry x="248" y="-240" width="212" height="60" as="geometry" />
        </mxCell>
      </root>
    </mxGraphModel>
  </diagram>
</mxfile>
